Coordinates
version=1
nRows=10
nColumns=33
inDegrees=yes

Units are S.I. units (second, meters, Newtons, ...)
Angles are in degrees.

endheader
time	ground_thorax_rot_x	ground_thorax_rot_y	ground_thorax_rot_z	ground_thorax_tx	ground_thorax_ty	ground_thorax_tz	clav_prot_r	clav_elev_r	scapula_abduction_r	scapula_elevation_r	scapula_upward_rot_r	scapula_winging_r	shoulder_elv_r	plane_of_elev_r	axial_rot_r	elbow_flexion_r	pro_sup_r	wrist_flex_r	wrist_dev_r	clav_prot_l	clav_elev_l	scapula_abduction_l	scapula_elevation_l	scapula_upward_rot_l	scapula_winging_l	shoulder_elv_l	plane_of_elev_l	axial_rot_l	elbow_flexion_l	pro_sup_l	wrist_flex_l	wrist_dev_l
      6.60000000	     30.73893036	     24.04866956	     33.00464275	    -92.96600958	    828.43859712	    -44.87259913	     12.46988716	     34.25628997	     24.91829206	     45.00000000	    -45.00000000	  -1887.51856768	  -1548.02542308	    159.07849130	     19.48632205	     -0.91169539	    151.75192051	     11.44950596	     15.35459963	     -7.40375568	    -45.00000000	    -40.14112903	     45.00000000	    -45.00000000	  -3135.78974222	     91.12773313	     17.84378833	   -179.99999979	    730.24620026	    198.41102381	     12.64066628	    -15.83907017
      6.61000000	     30.80896932	     23.91385730	     32.86073009	    -94.64232494	    829.99592112	    -45.10471031	     12.41945937	     34.30024363	     24.95513606	     45.00000000	    -45.00000000	  -1887.68365877	  -1548.08009872	    159.08468171	     19.55915851	     -0.98304670	    151.31988299	     11.48100098	     15.36562463	     -7.37463674	    -45.00000000	    -40.20981179	     45.00000000	    -45.00000000	  -3135.69028393	     91.13038348	     17.87145470	   -179.99999979	    730.21937544	    197.91279121	     12.60916736	    -16.03643663
      6.62000000	     30.90740273	     23.76497741	     32.66492658	    -96.24184216	    831.47356497	    -45.28269383	     12.32745228	     34.32336571	     24.96445469	     45.00000000	    -45.00000000	  -1887.81295044	  -1548.11035904	    159.13589651	     19.64909242	     -1.16524360	    150.94604222	     11.55350575	     15.40534516	     -7.27517325	    -45.00000000	    -40.34936509	     45.00000000	    -45.00000000	  -3135.52942097	     91.02883704	     17.95039835	   -179.99999979	    730.21431025	    197.31107108	     12.52970763	    -16.29228837
      6.63000000	     30.85725038	     23.75872177	     32.72581473	    -97.77768741	    832.83418236	    -45.35466447	     12.37277689	     34.15369379	     24.81020770	     45.00000000	    -45.00000000	  -1887.83763322	  -1548.02462041	    159.14782416	     19.78678498	     -1.23388506	    150.59922061	     11.52915671	     15.45373980	     -7.21931178	    -45.00000000	    -40.29288025	     45.00000000	    -45.00000000	  -3135.33517165	     91.04165187	     18.02258347	   -179.99999979	    730.43719494	    196.42352656	     12.35124996	    -16.39795207
      6.64000000	     30.79909646	     23.79993748	     32.83154884	    -99.26470856	    834.04135020	    -45.26929432	     12.29600238	     34.12643195	     24.72989043	     45.00000000	    -45.00000000	  -1887.99906631	  -1548.00015785	    159.16549647	     19.94179735	     -1.32815524	    150.30211868	     11.57831565	     15.48452022	     -7.18897073	    -45.00000000	    -40.21710685	     45.00000000	    -45.00000000	  -3135.13613409	     90.96603960	     18.07571742	   -179.99999979	    730.75411333	    195.01943313	     12.10207660	    -16.58198921
      6.65000000	     32.25035417	     24.77234901	     35.60996730	    -98.80589936	    845.40976089	    -33.82636585	     12.25915666	     34.10556512	     25.25458221	     45.00000000	    -45.00000000	  -1890.10345490	  -1547.51386854	    159.04452085	     22.38871856	     -1.38879499	    150.42600520	     11.94492302	     15.33632103	     -8.12341522	    -45.00000000	    -38.50613371	     45.00000000	    -45.00000000	  -3133.98735277	    270.10190040	    136.05271789	   -131.67852456	    707.85259954	    396.45168190	     14.03436144	    -18.83983659
      6.66000000	     32.41796828	     24.55596825	     35.41803160	    -99.94311350	    846.67910176	    -34.14559988	     12.48133051	     34.35789673	     25.45521989	     45.00000000	    -45.00000000	  -1890.12193128	  -1547.62168958	    159.10608371	     22.11939600	     -1.40722825	    150.39019013	     11.76894879	     15.38095323	     -8.52038750	    -45.00000000	    -38.36187398	     45.00000000	    -45.00000000	  -3133.93829926	    270.27515937	    135.97815807	   -131.40330607	    707.72390221	    396.58318735	     13.89959768	    -19.36797853
      6.67000000	     32.54319811	     24.47323229	     35.23300068	   -100.97554691	    847.87129323	    -34.44883964	     12.32356448	     34.25857131	     25.39739632	     45.00000000	    -45.00000000	  -1890.14910613	  -1547.61367787	    159.09371378	     22.09986550	     -1.48173155	    150.36223966	     11.95292862	     15.46094467	     -8.25584714	    -45.00000000	    -38.53305538	     45.00000000	    -45.00000000	  -3133.81020747	    270.17460888	    135.90958475	   -131.32045444	    707.91596030	    396.76702132	     14.02419814	    -19.46168315
      6.68000000	     32.70858474	     24.29245885	     35.00136715	   -101.89924906	    848.97718910	    -34.73114733	     12.37389294	     34.29277239	     25.32572834	     45.00000000	    -45.00000000	  -1890.21523096	  -1547.58656752	    158.91935410	     22.00266708	     -1.67630082	    150.36477126	     12.04504937	     15.46739780	     -8.26253853	    -45.00000000	    -38.55074172	     45.00000000	    -45.00000000	  -3133.73785850	    270.19840376	    135.79937958	   -131.26512087	    707.89984317	    396.92781169	     13.96718714	    -19.81638792
      6.69000000	     32.70896447	     24.39872641	     35.09749541	   -102.71057334	    849.99841371	    -34.98327813	     12.30663575	     34.19121642	     25.36205111	     45.00000000	    -45.00000000	  -1890.23078038	  -1547.65464602	    159.09756590	     21.83143196	     -1.65525304	    150.36343558	     12.25029177	     15.46953121	     -8.16232286	    -45.00000000	    -38.61649934	     45.00000000	    -45.00000000	  -3133.66566330	    270.23443973	    135.93249554	   -131.20937268	    708.05016935	    397.15020649	     14.02444572	    -19.78524762
